<?xml version="1.0" encoding="iso-8859-1"?>
<!-- Generator: Adobe Illustrator 19.0.0, SVG Export Plug-In . SVG Version: 6.00 Build 0)  -->
<svg version="1.1" id="Capa_1" xmlns="http://www.w3.org/2000/svg" xmlns:xlink="http://www.w3.org/1999/xlink" x="0px" y="0px"
	 viewBox="0 0 512 512" style="enable-background:new 0 0 512 512;" xml:space="preserve">
<g>
	<g>
		<rect x="186.646" y="195.602" transform="matrix(0.0056 -1 1 0.0056 -10.0829 411.2143)" width="30.149" height="30.149"/>
	</g>
</g>
<g>
	<g>
		<rect x="295.195" y="195.597" transform="matrix(1 -0.0042 0.0042 1 -0.8818 1.3046)" width="30.149" height="30.149"/>
	</g>
</g>
<g>
	<g>
		<path d="M255.999,0C137.989,0,41.982,96.008,41.982,214.018V512h427.661l0.375-297.963v-0.019C470.018,96.008,374.01,0,255.999,0z
			 M439.532,481.851H78.157c11.362-27.499,29.247-51.701,51.569-70.861l25.035,25.383l21.465-21.171l-21.88-22.185
			c20.073-12.358,42.511-21.114,66.246-25.387c6.273,17.968,20.758,30.267,38.037,30.267c19.087,0,34.763-15.009,39.726-36.087
			c65.114-19.729,111.364-80.301,111.364-147.791c0-82.895-65.957-150.662-148.145-153.608c-0.201-0.012-4.674-0.113-5.575-0.113
			c-84.762,0-153.72,68.959-153.72,153.72c0,36.501,13,71.891,36.606,99.651c11.62,13.667,25.46,25.093,40.784,33.866
			c-16.593,6-32.346,13.946-46.934,23.568l-16.687-16.92l-21.465,21.171l13.972,14.167c-13.749,12.024-26.018,25.71-36.424,40.758
			V214.018c0-101.385,82.483-183.869,183.869-183.869s183.869,82.484,183.869,183.869L439.532,481.851z M250.759,97.749
			c-22.944,0-41.612,18.667-41.612,41.612c0,22.944,18.667,41.612,41.612,41.612h11.187c27.516,0,49.902-22.386,49.902-49.902
			v-17.586c0-3.478-0.346-6.876-0.987-10.169c40.685,20.244,68.71,62.259,68.71,110.702c0,27.852-10.085,55.418-28.396,77.62
			c-7.644,9.268-16.518,17.372-26.253,24.123c0.04-0.951,0.062-1.9,0.062-2.846c0-37.004-30.105-67.109-67.108-67.109
			c-37.003,0-67.109,30.105-67.109,67.109c0,2.12,0.102,4.231,0.298,6.324c-10.896-6.737-20.78-15.182-29.213-25.099
			c-18.975-22.314-29.424-50.769-29.424-80.121c0-68.138,55.434-123.571,123.571-123.571c0.987-0.001,1.97,0.013,2.95,0.036
			c0.157,0.002,0.314,0.007,0.47,0.012c0.203,0.005,0.405,0.016,0.607,0.023c12.068,0.693,21.673,10.728,21.673,22.966v17.586
			c0,10.892-8.861,19.753-19.753,19.753h-11.187c-6.32,0-11.463-5.142-11.463-11.463c0-6.321,5.142-11.463,11.463-11.463h12.102
			V97.749H250.759z M258.63,296.947c-15.874,0-29.392,10.381-36.35,26c-0.897-3.237-1.363-6.609-1.363-10.034
			c0-20.38,16.58-36.96,36.96-36.96c20.379,0,36.959,16.58,36.959,36.96c0,2.641-0.282,5.343-0.813,7.998
			C286.826,306.432,273.805,296.947,258.63,296.947z M269.859,347.422c0,12.408-6.651,20.326-11.229,20.326
			c-4.579,0-11.23-7.918-11.23-20.326c0-12.407,6.651-20.325,11.23-20.325C263.208,327.096,269.859,335.014,269.859,347.422z"/>
	</g>
</g>
<g>
</g>
<g>
</g>
<g>
</g>
<g>
</g>
<g>
</g>
<g>
</g>
<g>
</g>
<g>
</g>
<g>
</g>
<g>
</g>
<g>
</g>
<g>
</g>
<g>
</g>
<g>
</g>
<g>
</g>
</svg>
